<svg id="visual" viewBox="0 0 900 100" width="900" height="100" xmlns="http://www.w3.org/2000/svg" xmlns:xlink="http://www.w3.org/1999/xlink" version="1.1"><rect x="0" y="0" width="900" height="100" fill="#005BAB"></rect><path d="M0 65L21.5 65C43 65 86 65 128.8 64.7C171.7 64.3 214.3 63.7 257.2 64.5C300 65.3 343 67.7 385.8 67.2C428.7 66.7 471.3 63.3 514.2 64C557 64.7 600 69.3 642.8 69.8C685.7 70.3 728.3 66.7 771.2 64.2C814 61.7 857 60.3 878.5 59.7L900 59L900 101L878.5 101C857 101 814 101 771.2 101C728.3 101 685.7 101 642.8 101C600 101 557 101 514.2 101C471.3 101 428.7 101 385.8 101C343 101 300 101 257.2 101C214.3 101 171.7 101 128.8 101C86 101 43 101 21.5 101L0 101Z" fill="#f9b040"></path><path d="M0 74L21.5 74.5C43 75 86 76 128.8 76.7C171.7 77.3 214.3 77.7 257.2 76.5C300 75.3 343 72.7 385.8 70.5C428.7 68.3 471.3 66.7 514.2 67.5C557 68.3 600 71.7 642.8 73.7C685.7 75.7 728.3 76.3 771.2 75.7C814 75 857 73 878.5 72L900 71L900 101L878.5 101C857 101 814 101 771.2 101C728.3 101 685.7 101 642.8 101C600 101 557 101 514.2 101C471.3 101 428.7 101 385.8 101C343 101 300 101 257.2 101C214.3 101 171.7 101 128.8 101C86 101 43 101 21.5 101L0 101Z" fill="#fdbf35"></path><path d="M0 84L21.5 82.7C43 81.3 86 78.7 128.8 78.2C171.7 77.7 214.3 79.3 257.2 80.5C300 81.7 343 82.3 385.8 82C428.7 81.7 471.3 80.3 514.2 80.3C557 80.3 600 81.7 642.8 82.5C685.7 83.3 728.3 83.7 771.2 83C814 82.3 857 80.7 878.5 79.8L900 79L900 101L878.5 101C857 101 814 101 771.2 101C728.3 101 685.7 101 642.8 101C600 101 557 101 514.2 101C471.3 101 428.7 101 385.8 101C343 101 300 101 257.2 101C214.3 101 171.7 101 128.8 101C86 101 43 101 21.5 101L0 101Z" fill="#ffcf29"></path><path d="M0 86L21.5 85.8C43 85.7 86 85.3 128.8 85.5C171.7 85.7 214.3 86.3 257.2 86.8C300 87.3 343 87.7 385.8 87.5C428.7 87.3 471.3 86.7 514.2 85.3C557 84 600 82 642.8 81C685.7 80 728.3 80 771.2 81.2C814 82.3 857 84.7 878.5 85.8L900 87L900 101L878.5 101C857 101 814 101 771.2 101C728.3 101 685.7 101 642.8 101C600 101 557 101 514.2 101C471.3 101 428.7 101 385.8 101C343 101 300 101 257.2 101C214.3 101 171.7 101 128.8 101C86 101 43 101 21.5 101L0 101Z" fill="#ffe01a"></path><path d="M0 92L21.5 91.2C43 90.3 86 88.7 128.8 88.3C171.7 88 214.3 89 257.2 89.8C300 90.7 343 91.3 385.8 91.7C428.7 92 471.3 92 514.2 91.8C557 91.7 600 91.3 642.8 91C685.7 90.7 728.3 90.3 771.2 89.7C814 89 857 88 878.5 87.5L900 87L900 101L878.5 101C857 101 814 101 771.2 101C728.3 101 685.7 101 642.8 101C600 101 557 101 514.2 101C471.3 101 428.7 101 385.8 101C343 101 300 101 257.2 101C214.3 101 171.7 101 128.8 101C86 101 43 101 21.5 101L0 101Z" fill="#fff100"></path></svg>